<svg width="54" height="62" viewBox="0 0 54 62" fill="none" xmlns="http://www.w3.org/2000/svg">
<path d="M7.63704 0C7.10245 0 6.64423 0.0763704 6.186 0.229111C3.20756 0.840075 0.840075 3.20756 0.229111 6.186C0 6.64423 0 7.10245 0 7.63704V49.6408C0 55.9795 5.11682 61.0963 11.4556 61.0963H53.4593V53.4593H11.4556C9.31719 53.4593 7.63704 51.7791 7.63704 49.6408C7.63704 47.5024 9.31719 45.8222 11.4556 45.8222H53.4593V3.81852C53.4593 1.68015 51.7791 0 49.6408 0H45.8222V22.9111L38.1852 15.2741L30.5482 22.9111V0H7.63704Z" fill="#2B4C9F"/>
</svg>
