<svg width="58" height="52" viewBox="0 0 58 52" fill="none" xmlns="http://www.w3.org/2000/svg">
<path d="M31.2475 33.9308L24.6858 27.4467L24.7633 27.3692C29.1399 22.505 32.4097 16.7497 34.3475 10.5H41.9166V5.33334H23.8333V0.166672H18.6666V5.33334H0.583313V10.5H29.4391C27.7083 15.46 24.97 20.1875 21.25 24.3208C18.8475 21.66 16.8583 18.7408 15.2825 15.6667H10.1158C12.0016 19.8775 14.585 23.8558 17.8141 27.4467L4.66498 40.415L8.33331 44.0833L21.25 31.1667L29.2841 39.2008L31.2475 33.9308ZM45.7916 20.8333H40.625L29 51.8333H34.1666L37.06 44.0833H49.3308L52.25 51.8333H57.4166L45.7916 20.8333ZM39.0233 38.9167L43.2083 27.7308L47.3933 38.9167H39.0233Z" fill="#2B4C9F"/>
</svg>
