<svg width="58" height="58" viewBox="0 0 58 58" fill="none" xmlns="http://www.w3.org/2000/svg">
<path d="M33.8334 36.25C34.5181 36.25 35.1126 35.9986 35.6169 35.496C36.1211 34.9933 36.3725 34.3988 36.3709 33.7125C36.3709 33.0278 36.1195 32.4341 35.6169 31.9314C35.1142 31.4287 34.5197 31.1766 33.8334 31.175C33.1486 31.175 32.555 31.4271 32.0523 31.9314C31.5496 32.4357 31.2975 33.0294 31.2959 33.7125C31.2959 34.3972 31.548 34.9917 32.0523 35.496C32.5566 36.0003 33.1503 36.2516 33.8334 36.25ZM32.0209 28.5166H35.6459C35.6459 27.3486 35.7667 26.4931 36.0084 25.9501C36.25 25.4072 36.8139 24.6919 37.7 23.8041C38.9084 22.5958 39.7139 21.6195 40.1167 20.8751C40.5195 20.1308 40.7209 19.2544 40.7209 18.2458C40.7209 16.4333 40.0861 14.9535 38.8165 13.8064C37.547 12.6593 35.8859 12.0849 33.8334 12.0833C32.182 12.0833 30.7425 12.5465 29.5148 13.4729C28.2871 14.3993 27.4308 15.6278 26.9459 17.1583L30.2084 18.4875C30.5709 17.4805 31.0647 16.7257 31.6898 16.2231C32.3149 15.7204 33.0294 15.4683 33.8334 15.4666C34.8 15.4666 35.5855 15.7389 36.1896 16.2835C36.7938 16.828 37.0959 17.5627 37.0959 18.4875C37.0959 19.0514 36.9348 19.5855 36.6125 20.0897C36.2903 20.594 35.7264 21.228 34.9209 21.9916C33.5917 23.1597 32.7765 24.0764 32.4752 24.7418C32.1739 25.4072 32.0225 26.6655 32.0209 28.5166ZM19.3334 43.5C18.0042 43.5 16.8668 43.0271 15.921 42.0814C14.9753 41.1357 14.5017 39.9974 14.5 38.6666V9.66665C14.5 8.33748 14.9737 7.20004 15.921 6.25431C16.8684 5.30859 18.0058 4.83492 19.3334 4.83331H48.3334C49.6625 4.83331 50.8008 5.30698 51.7481 6.25431C52.6955 7.20165 53.1683 8.33909 53.1667 9.66665V38.6666C53.1667 39.9958 52.6938 41.1341 51.7481 42.0814C50.8024 43.0287 49.6641 43.5016 48.3334 43.5H19.3334ZM9.66671 53.1666C8.33754 53.1666 7.2001 52.6938 6.25437 51.7481C5.30865 50.8023 4.83499 49.6641 4.83337 48.3333V14.5H9.66671V48.3333H43.5V53.1666H9.66671Z" fill="#2B4C9F"/>
</svg>
