<svg width="50" height="50" viewBox="0 0 72 72" fill="none" xmlns="http://www.w3.org/2000/svg">
<path d="M30.9068 0.088305C13.8639 0.088305 0 13.9522 0 30.9951C0 48.0379 13.8639 61.9018 30.9068 61.9018C36.1168 61.9018 41.2384 60.6656 45.5654 58.2813C45.912 58.6984 46.2963 59.0827 46.7134 59.4293L55.5439 68.2598C56.3592 69.1773 57.3536 69.9184 58.4657 70.4378C59.5779 70.9571 60.7845 71.2436 62.0114 71.2797C63.2384 71.3158 64.4597 71.1008 65.6005 70.6478C66.7413 70.1948 67.7775 69.5134 68.6455 68.6455C69.5134 67.7775 70.1948 66.7413 70.6478 65.6005C71.1008 64.4597 71.3158 63.2384 71.2797 62.0114C71.2436 60.7845 70.9571 59.5779 70.4377 58.4657C69.9184 57.3536 69.1773 56.3593 68.2598 55.5439L59.4293 46.7134C58.9991 46.2831 58.5257 45.8984 58.0164 45.5654C60.4006 41.2385 61.9018 36.2051 61.9018 30.9068C61.9018 13.8639 48.0379 0 30.9951 0L30.9068 0.088305ZM30.9068 8.91881C43.1812 8.91881 52.983 18.7207 52.983 30.9951C52.983 36.8232 50.8637 42.2098 47.1549 46.1835C47.0666 46.2718 46.9783 46.3601 46.89 46.4485C46.4729 46.795 46.0886 47.1793 45.742 47.5964C41.8566 51.1286 36.5583 53.1596 30.8185 53.1596C18.5441 53.1596 8.7422 43.3578 8.7422 31.0834C8.7422 18.809 18.5441 9.00711 30.8185 9.00711L30.9068 8.91881Z" fill="#2b4c9f"/>
</svg>
